:FULLY-SPECIFIED
:FORCE-ALL-JOINTS-BE-3DOF
:DEGREES
204
root 4.972 15.4197 -25.5226 7.40446 1.72264 2.84366
lfemur -1.39023 -3.70019 7.77807
ltibia 14.9923 -0 0
lfoot -21.216 -19.4171 -0.553494
ltoes 47.6663 -0 0
rfemur -24.9767 -15.9081 -6.66744
rtibia 43.114 -0 0
rfoot -29.6372 11.2327 0.302503
rtoes 58.2175 -0 0
lowerback -2.22432 -2.5903 -0.602935
upperback -0.0754132 -3.38807 -5.83436
thorax 0.801712 -1.68638 -5.80002
lowerneck -12.1976 0.622556 4.48062
upperneck 3.46885 -0.0468187 2.70136
head 3.33503 0.167137 0.0712696
lclavicle 1.47101e-014 3.65764e-014 0
lhumerus -57.8276 -42.9926 115.669
lradius 55.7218 -0 0
lwrist 26.689 0 0
lhand 29.04 28.9742 0.306999
lfingers 7.12502 -0 0
lthumb 52.6823 47.3924 -0.0841737
rclavicle 1.47101e-014 3.65764e-014 0
rhumerus -24.6053 28.3514 -41.7915
rradius 110.705 -0 0
rwrist -6.61663 0 0
rhand -7.45126 -24.3271 3.52167
rfingers 7.12502 -0 0
rthumb 18.1952 -50.9806 4.22998
205
root 4.9487 15.4015 -25.5352 7.44404 1.29653 2.72782
lfemur -1.42223 -3.05386 7.83427
ltibia 15.4616 -0 0
lfoot -21.5798 -18.7107 -0.53149
ltoes 47.1118 -0 0
rfemur -25.7372 -16.4793 -6.30308
rtibia 43.7405 -0 0
rfoot -29.5667 12.1241 0.317204
rtoes 58.4582 -0 0
lowerback -2.05182 -2.65068 -0.56484
upperback -0.0337669 -3.47403 -5.72624
thorax 0.749494 -1.73082 -5.69842
lowerneck -12.1465 0.870955 4.60986
upperneck 3.42852 0.279119 2.55059
head 3.312 0.322687 0.0201353
lclavicle 1.47101e-014 3.65764e-014 0
lhumerus -58.004 -43.0519 115.811
lradius 55.7974 -0 0
lwrist 26.9547 0 0
lhand 28.294 28.506 0.298093
lfingers 7.12502 -0 0
lthumb 52.0151 47.389 -0.0833472
rclavicle 1.47101e-014 3.65764e-014 0
rhumerus -23.1219 26.2702 -40.0484
rradius 109.662 -0 0
rwrist -6.44961 0 0
rhand -9.65838 -25.547 3.40342
rfingers 7.12502 -0 0
rthumb 16.072 -52.5089 4.09434
206
root 4.9254 15.3833 -25.5478 7.48451 0.912325 2.60818
lfemur -1.47671 -2.38456 7.8753
ltibia 15.95 -0 0
lfoot -21.9316 -17.9942 -0.503357
ltoes 46.5598 -0 0
rfemur -26.4916 -17.0263 -5.92673
rtibia 44.3766 -0 0
rfoot -29.4759 12.9672 0.325847
rtoes 58.6722 -0 0
lowerback -1.87783 -2.71186 -0.527309
upperback 0.00692999 -3.56094 -5.6122
thorax 0.696102 -1.77569 -5.59021
lowerneck -12.0941 1.10922 4.73208
upperneck 3.38666 0.592666 2.40127
head 3.28848 0.472085 -0.0299104
lclavicle 1.47101e-014 3.65764e-014 0
lhumerus -58.1705 -43.1029 115.952
lradius 55.8742 -0 0
lwrist 27.2061 0 0
lhand 27.5455 28.0324 0.284884
lfingers 7.12502 -0 0
lthumb 51.3453 47.378 -0.0817933
rclavicle 1.47101e-014 3.65764e-014 0
rhumerus -21.7896 24.1491 -38.4576
rradius 108.594 -0 0
rwrist -6.26108 0 0
rhand -11.8219 -26.7271 3.24005
rfingers 7.12502 -0 0
rthumb 13.9922 -53.9911 3.90491
207
root 4.90211 15.3652 -25.5605 7.52628 0.574479 2.48515
lfemur -1.5554 -1.69632 7.9005
ltibia 16.4554 -0 0
lfoot -22.2694 -17.2734 -0.469684
ltoes 46.0144 -0 0
rfemur -27.2314 -17.5426 -5.54208
rtibia 45.0142 -0 0
rfoot -29.3682 13.753 0.32814
rtoes 58.8609 -0 0
lowerback -1.70393 -2.77308 -0.490269
upperback 0.0461662 -3.64781 -5.49265
thorax 0.641883 -1.82048 -5.476
lowerneck -12.0407 1.33542 4.84635
upperneck 3.34361 0.891295 2.25414
head 3.2646 0.614108 -0.0786236
lclavicle 1.47101e-014 3.65764e-014 0
lhumerus -58.3265 -43.1444 116.09
lradius 55.9527 -0 0
lwrist 27.4418 0 0
lhand 26.7977 27.5558 0.267642
lfingers 7.12502 -0 0
lthumb 50.6752 47.3597 -0.079515
rclavicle 1.47101e-014 3.65764e-014 0
rhumerus -20.6033 22.0095 -37.0159
rradius 107.503 -0 0
rwrist -6.04879 0 0
rhand -13.9296 -27.8579 3.03584
rfingers 7.12502 -0 0
rthumb 11.9681 -55.4163 3.66653
208
root 4.87881 15.347 -25.5731 7.5697 0.287447 2.35914
lfemur -1.66007 -0.993172 7.90916
ltibia 16.9757 -0 0
lfoot -22.5914 -16.5539 -0.431181
ltoes 45.4793 -0 0
rfemur -27.948 -18.0221 -5.15318
rtibia 45.6448 -0 0
rfoot -29.247 14.4725 0.323969
rtoes 59.0257 -0 0
lowerback -1.53173 -2.83361 -0.453641
upperback 0.0834358 -3.73363 -5.36798
thorax 0.587183 -1.86465 -5.35636
lowerneck -11.9867 1.54762 4.95176
upperneck 3.29974 1.17248 2.10994
head 3.24053 0.747532 -0.125758
lclavicle 1.47101e-014 3.65764e-014 0
lhumerus -58.4716 -43.1756 116.227
lradius 56.0333 -0 0
lwrist 27.6602 0 0
lhand 26.0535 27.0788 0.246752
lfingers 7.12502 -0 0
lthumb 50.0076 47.3342 -0.0765107
rclavicle 1.47101e-014 3.65764e-014 0
rhumerus -19.5575 19.8723 -35.7198
rradius 106.394 -0 0
rwrist -5.81048 0 0
rhand -15.9693 -28.9303 2.79603
rfingers 7.12502 -0 0
rthumb 10.0118 -56.7742 3.38518
209
root 4.85551 15.3289 -25.5857 7.61509 0.0556844 2.23059
lfemur -1.79251 -0.279196 7.90051
ltibia 17.5089 -0 0
lfoot -22.8958 -15.8417 -0.388665
ltoes 44.9583 -0 0
rfemur -28.6322 -18.4586 -4.7644
rtibia 46.26 -0 0
rfoot -29.1158 15.1166 0.313392
rtoes 59.168 -0 0
lowerback -1.36282 -2.89271 -0.417336
upperback 0.118238 -3.8174 -5.2386
thorax 0.532357 -1.90768 -5.23189
lowerneck -11.9325 1.74389 5.04737
upperneck 3.25542 1.4337 1.96942
head 3.21639 0.871132 -0.171067
lclavicle 1.47101e-014 3.65764e-014 0
lhumerus -58.6052 -43.1955 116.363
lradius 56.1164 -0 0
lwrist 27.8597 0 0
lhand 25.3159 26.604 0.222716
lfingers 7.12502 -0 0
lthumb 49.345 47.3015 -0.0727727
rclavicle 1.47101e-014 3.65764e-014 0
rhumerus -18.646 17.758 -34.5655
rradius 105.269 -0 0
rwrist -5.5439 0 0
rhand -17.9293 -29.9359 2.52669
rfingers 7.12502 -0 0
rthumb 8.13461 -58.0549 3.06781
210
root 4.83221 15.3107 -25.5983 7.66275 -0.116349 2.09991
lfemur -1.95456 0.441518 7.87374
ltibia 18.053 -0 0
lfoot -23.1807 -15.1423 -0.343057
ltoes 44.4555 -0 0
rfemur -29.275 -18.8464 -4.38041
rtibia 46.8514 -0 0
rfoot -28.9781 15.6762 0.296625
rtoes 59.2891 -0 0
lowerback -1.19882 -2.94963 -0.381257
upperback 0.150079 -3.89811 -5.1049
thorax 0.477759 -1.94906 -5.10319
lowerneck -11.8785 1.92231 5.13226
upperneck 3.21105 1.67244 1.83334
head 3.19236 0.983687 -0.214299
lclavicle 1.47101e-014 3.65764e-014 0
lhumerus -58.727 -43.203 116.498
lradius 56.2024 -0 0
lwrist 28.039 0 0
lhand 24.5878 26.1338 0.196148
lfingers 7.12502 -0 0
lthumb 48.6899 47.2619 -0.068286
rclavicle 1.47101e-014 3.65764e-014 0
rhumerus -17.8626 15.6862 -33.5493
rradius 104.133 -0 0
rwrist -5.24679 0 0
rhand -19.7981 -30.8666 2.23463
rfingers 7.12502 -0 0
rthumb 6.34776 -59.2492 2.7222
211
root 4.80891 15.2925 -25.6109 7.71295 -0.224195 1.96757
lfemur -2.14808 1.16484 7.828
ltibia 18.6058 -0 0
lfoot -23.4444 -14.4615 -0.295365
ltoes 43.9747 -0 0
rfemur -29.8668 -19.1798 -4.00612
rtibia 47.4108 -0 0
rfoot -28.8371 16.1424 0.274029
rtoes 59.3904 -0 0
lowerback -1.04131 -3.00364 -0.345304
upperback 0.178469 -3.97476 -4.96728
thorax 0.423747 -1.98826 -4.97086
lowerneck -11.825 2.08095 5.20549
upperneck 3.16704 1.88617 1.70246
head 3.16858 1.08397 -0.255205
lclavicle 1.47101e-014 3.65764e-014 0
lhumerus -58.8364 -43.1972 116.631
lradius 56.2917 -0 0
lwrist 28.1964 0 0
lhand 23.8722 25.6708 0.167773
lfingers 7.12502 -0 0
lthumb 48.0449 47.2154 -0.0630263
rclavicle 1.47101e-014 3.65764e-014 0
rhumerus -17.2013 13.6764 -32.6681
rradius 102.988 -0 0
rwrist -4.91689 0 0
rhand -21.5648 -31.715 1.9272
rfingers 7.12502 -0 0
rthumb 4.66179 -60.3486 2.35678
212
root 4.78562 15.2744 -25.6235 7.76591 -0.263393 1.83402
lfemur -2.37497 1.88661 7.76242
ltibia 19.1654 -0 0
lfoot -23.6851 -13.805 -0.246676
ltoes 43.5197 -0 0
rfemur -30.398 -19.4534 -3.64656
rtibia 47.9296 -0 0
rfoot -28.6962 16.5061 0.246083
rtoes 59.4734 -0 0
lowerback -0.891905 -3.05399 -0.309367
upperback 0.202928 -4.04633 -4.82613
thorax 0.370686 -2.02479 -4.83548
lowerneck -11.7723 2.21788 5.2661
upperneck 3.12382 2.07239 1.57757
head 3.14521 1.17077 -0.293531
lclavicle 1.47101e-014 3.65764e-014 0
lhumerus -58.9329 -43.1772 116.764
lradius 56.3847 -0 0
lwrist 28.3304 0 0
lhand 23.172 25.2175 0.138422
lfingers 7.12502 -0 0
lthumb 47.4126 47.1622 -0.056959
rclavicle 1.47101e-014 3.65764e-014 0
rhumerus -16.6565 11.7471 -31.9194
rradius 101.838 -0 0
rwrist -4.55195 0 0
rhand -23.2184 -32.474 1.61212
rfingers 7.12502 -0 0
rthumb 3.08686 -61.3448 1.98044
213
root 4.76232 15.2562 -25.6361 7.82186 -0.229481 1.69975
lfemur -2.63713 2.60262 7.67608
ltibia 19.7297 -0 0
lfoot -23.9011 -13.1784 -0.198138
ltoes 43.0944 -0 0
rfemur -30.8589 -19.6617 -3.30686
rtibia 48.3996 -0 0
rfoot -28.5588 16.7583 0.213358
rtoes 59.5394 -0 0
lowerback -0.752191 -3.09994 -0.273331
upperback 0.222981 -4.1118 -4.68184
thorax 0.318941 -2.05811 -4.69767
lowerneck -11.721 2.3312 5.31314
upperneck 3.08181 2.22858 1.45945
head 3.1224 1.24285 -0.329022
lclavicle 1.47101e-014 3.65764e-014 0
lhumerus -59.016 -43.1419 116.896
lradius 56.4818 -0 0
lwrist 28.4395 0 0
lhand 22.4902 24.7763 0.109025
lfingers 7.12502 -0 0
lthumb 46.7956 47.1024 -0.0500375
rclavicle 1.47101e-014 3.65764e-014 0
rhumerus -16.2234 9.91643 -31.3016
rradius 100.686 -0 0
rwrist -4.14972 0 0
rhand -24.7485 -33.1372 1.29736
rfingers 7.12502 -0 0
rthumb 1.63279 -62.2304 1.60232
